<?xml version="1.0" encoding="UTF-8"?>
<svg id="Layer_2" data-name="Layer 2" xmlns="http://www.w3.org/2000/svg" viewBox="0 0 1337.52 1002.98">
  <defs>
    <style>
      .cls-1 {
        fill: #fff;
        stroke-width: 2px;
      }

      .cls-1, .cls-2 {
        stroke: #fff;
        stroke-miterlimit: 10;
      }

      .cls-2 {
        fill: #f4bb1e;
        stroke-width: 18px;
      }
    </style>
  </defs>
  <g id="Layer_1-2" data-name="Layer 1">
    <g>
      <path class="cls-1" d="m888.88,507.2c-5.72.67-9.76,2.27-12.11,4.79-2.52,2.69-5.64,9.17-9.34,19.42l-57.78,158.68-58.54-154.9c-4.71-11.94-9.17-19.76-13.37-23.46-2.86-2.35-7.66-3.87-14.38-4.54v-5.05h62.58v5.05c-8.07.67-13.29,1.51-15.64,2.52-3.7,1.52-5.55,4.46-5.55,8.83,0,2.86,3.28,13.12,9.84,30.78l38.86,103.94,41.63-113.52c3.03-8.41,4.54-15.05,4.54-19.93,0-5.55-1.85-9.08-5.55-10.6-1.35-.67-5.72-1.34-13.12-2.02v-5.05h47.94v5.05Z"/>
      <path class="cls-1" d="m604.91,683.46c5.72-.67,9.76-2.27,12.11-4.79,2.52-2.69,5.64-9.17,9.34-19.42l57.78-158.68,58.54,154.9c4.71,11.94,9.17,19.76,13.37,23.46,2.86,2.35,7.66,3.87,14.38,4.54v5.05h-62.58v-5.05c8.07-.67,13.29-1.51,15.64-2.52,3.7-1.52,5.55-4.46,5.55-8.83,0-2.86-3.28-13.12-9.84-30.78l-38.86-103.94-41.63,113.52c-3.03,8.41-4.54,15.05-4.54,19.93,0,5.55,1.85,9.08,5.55,10.6,1.35.67,5.72,1.34,13.12,2.02v5.05h-47.94v-5.05Z"/>
      <path class="cls-1" d="m971.14,688.33h-72.17v-5.05c11.1-.5,18.59-2.61,22.46-6.31,4.04-3.7,6.06-10.6,6.06-20.69v-121.09c0-10.43-2.11-17.57-6.31-21.44-3.7-3.19-11.1-5.13-22.2-5.8v-5.05h72.17v5.05c-10.26.5-17.33,2.19-21.2,5.04-5.05,4.04-7.57,11.44-7.57,22.2v121.09c0,10.6,2.52,17.83,7.57,21.7,3.87,3.19,10.93,4.96,21.2,5.3v5.05Z"/>
      <path class="cls-1" d="m1185.11,688.33h-65.86v-5.05c10.26-.84,17.07-3.03,20.44-6.56,3.36-3.7,5.05-11.35,5.05-22.96v-137.24l-2.52,1.51-65.6,170.29h-2.02l-64.34-170.03-1.77-.5v130.42c0,14.3,1.93,23.71,5.8,28.26,3.03,3.7,9.42,5.97,19.18,6.81v5.05h-55.01v-5.05c9.92-1.01,16.06-3.28,18.42-6.81,2.35-3.7,3.53-13.12,3.53-28.26v-115.79c0-11.27-1.18-18.33-3.53-21.19-2.02-2.02-7.99-3.28-17.92-3.79v-4.79h43.4l57.78,155.15,59.3-155.15h45.67v4.79c-9.42.84-15.48,2.19-18.17,4.04-4.54,3.37-6.81,10.34-6.81,20.94v124.87c0,10.26,2.27,17.24,6.81,20.94,3.03,2.52,9.08,4.2,18.17,5.05v5.05Z"/>
      <path class="cls-1" d="m1336.26,642.92l-10.6,45.41h-131.46v-5.05c9.08-.84,15.22-2.52,18.42-5.05,4.37-3.7,6.56-10.68,6.56-20.94v-123.36c0-10.76-2.19-17.91-6.56-21.44-2.86-2.35-9-3.95-18.42-4.79v-5.05h129.44l.76,37.84h-5.3c-2.02-12.95-5.22-21.02-9.59-24.22-4.38-3.36-13.71-5.04-28.01-5.04h-36.33c-4.54,0-7.07.17-7.57.5-1.68.84-2.52,3.87-2.52,9.08v64.83h41.38c10.76,0,17.92-1.85,21.45-5.55,2.86-3.03,5.05-9.84,6.56-20.43h5.3v62.82h-5.3c-1.51-11.44-3.87-18.67-7.07-21.69-3.37-3.19-10.34-4.79-20.94-4.79h-41.38v70.13c0,6.06,2.18,9.92,6.56,11.61,4.2,1.34,15.98,2.02,35.33,2.02,15.64,0,27.08-2.52,34.31-7.57,7.23-5.05,13.79-14.8,19.68-29.26h5.3Z"/>
    </g>
    <g>
      <line class="cls-2" x1="8.32" y1="188.97" x2="341.72" y2="999.56"/>
      <line class="cls-2" x1="25.92" y1="3.42" x2="385.81" y2="878.41"/>
      <line class="cls-2" x1="472.31" y1="237.74" x2="349.62" y2="662.31"/>
      <line class="cls-2" x1="526.39" y1="343.61" x2="403.71" y2="768.19"/>
    </g>
  </g>
</svg>