<?xml version="1.0" encoding="UTF-8"?><svg id="Layer_2" xmlns="http://www.w3.org/2000/svg" viewBox="0 0 307.33 297.35"><defs><style>.cls-1{stroke-width:18.12px;}.cls-1,.cls-2{fill:none;stroke:#fff;stroke-linecap:round;stroke-linejoin:round;}.cls-2{stroke-width:18px;}</style></defs><g id="Layer_1-2"><g><path class="cls-1" d="M74.89,87.52l77.27-38.63,77.27,38.63"/><path class="cls-1" d="M210.1,126.15l38.63,19.32v77.27c0,10.67-8.65,19.32-19.32,19.32H74.89c-10.67,0-19.32-8.65-19.32-19.32v-77.27l38.63-19.32"/><path class="cls-1" d="M171.47,242.05v-38.63c0-10.67-8.65-19.32-19.32-19.32h0c-10.67,0-19.32,8.65-19.32,19.32v38.63"/><path class="cls-1" d="M210.1,77.86V242.05"/><path class="cls-1" d="M94.2,77.86V242.05"/><circle class="cls-1" cx="152.15" cy="116.5" r="19.32"/></g><g><path class="cls-1" d="M74.89,87.52l77.27-38.63,77.27,38.63"/><path class="cls-1" d="M210.1,126.15l38.63,19.32v77.27c0,10.67-8.65,19.32-19.32,19.32H74.89c-10.67,0-19.32-8.65-19.32-19.32v-77.27l38.63-19.32"/><path class="cls-1" d="M171.47,242.05v-38.63c0-10.67-8.65-19.32-19.32-19.32h0c-10.67,0-19.32,8.65-19.32,19.32v38.63"/><path class="cls-1" d="M210.1,77.86V242.05"/><path class="cls-1" d="M94.2,77.86V242.05"/><circle class="cls-1" cx="152.15" cy="116.5" r="19.32"/></g><rect class="cls-2" x="9" y="9" width="289.33" height="279.35" rx="25.18" ry="25.18"/></g></svg>